<svg width="41" height="34" viewBox="0 0 41 34" fill="none" xmlns="http://www.w3.org/2000/svg">
<path d="M31.9426 28.0577C31.9426 31.1499 29.4321 33.6632 26.3283 33.6632C23.2244 33.6632 20.7139 31.1499 20.7139 28.0577C20.7139 24.9656 18.2795 22.5132 15.2518 22.4523C15.2061 22.437 15.1605 22.437 15.1148 22.437C15.0692 22.437 15.0235 22.437 14.9779 22.4523C11.9349 22.3761 9.50049 19.8933 9.50049 16.8316C9.50049 13.7699 11.9349 11.3023 14.9779 11.2414H15.2518C18.2795 11.1652 20.7139 8.68236 20.7139 5.62068C20.7139 2.55901 23.2244 0 26.3283 0C29.4321 0 31.9426 2.51331 31.9426 5.62068C31.9426 8.72805 29.5082 11.1652 26.4804 11.2414C26.4348 11.2261 26.3739 11.2261 26.3283 11.2261C26.2826 11.2261 26.237 11.2261 26.1913 11.2414C23.1483 11.3023 20.7139 13.7851 20.7139 16.8316C20.7139 19.878 23.1483 22.3761 26.1913 22.4523H26.4804C29.5082 22.5132 31.9426 24.996 31.9426 28.0577Z" fill="#DFF4E7"/>
<path d="M5.39474 11.2199C8.37417 11.2199 10.7895 8.80459 10.7895 5.82516C10.7895 2.84573 8.37417 0.43042 5.39474 0.43042C2.41531 0.43042 0 2.84573 0 5.82516C0 8.80459 2.41531 11.2199 5.39474 11.2199Z" fill="#DFF4E7"/>
<path d="M5.39474 33.6656C8.37417 33.6656 10.7895 31.1537 10.7895 28.0551C10.7895 24.9565 8.37417 22.4446 5.39474 22.4446C2.41531 22.4446 0 24.9565 0 28.0551C0 31.1537 2.41531 33.6656 5.39474 33.6656Z" fill="#DFF4E7"/>
</svg>
